{
.appVersion = "1143";
DisplayStrings = (
adhesion
);
date = "2018-04-30 09:51:00 +0000";
familyName = Zenden;
fontMaster = (
{
ascender = 800;
capHeight = 700;
descender = -200;
id = "437D673D-D5CC-46D2-BD76-0DB95BEFF2D4";
userData = {
GSCornerRadius = 15;
};
xHeight = 520;
}
);
glyphs = (
{
glyphname = C;
lastChange = "2018-04-30 21:45:49 +0000";
layers = (
{
layerId = "437D673D-D5CC-46D2-BD76-0DB95BEFF2D4";
paths = (
{
closed = 1;
nodes = (
"903 236 LINE",
"957 216 LINE",
"824 104 OFFCURVE",
"720 84 OFFCURVE",
"645 79 CURVE SMOOTH",
"487 70 OFFCURVE",
"396 190 OFFCURVE",
"396 370 CURVE SMOOTH",
"396 508 OFFCURVE",
"436 641 OFFCURVE",
"555 641 CURVE SMOOTH",
"666 641 OFFCURVE",
"703 555 OFFCURVE",
"708 418 CURVE",
"984 418 LINE",
"951 581 OFFCURVE",
"791 710 OFFCURVE",
"548 710 CURVE SMOOTH",
"271 710 OFFCURVE",
"70 542 OFFCURVE",
"70 350 CURVE SMOOTH",
"70 156 OFFCURVE",
"277 -10 OFFCURVE",
"548 -10 CURVE SMOOTH",
"730 -10 OFFCURVE",
"888 65 OFFCURVE",
"989 171 CURVE",
"995 125 LINE"
);
},
{
closed = 1;
nodes = (
"916 488 LINE",
"916 418 LINE",
"994 418 LINE",
"994 488 LINE"
);
}
);
width = 964;
}
);
unicode = 0043;
},
{
glyphname = E;
lastChange = "2018-04-30 10:47:51 +0000";
layers = (
{
layerId = "437D673D-D5CC-46D2-BD76-0DB95BEFF2D4";
paths = (
{
closed = 1;
nodes = (
"52 70 LINE",
"52 0 LINE",
"864 0 LINE",
"864 70 LINE"
);
},
{
closed = 1;
nodes = (
"791 280 LINE",
"561 0 LINE",
"864 0 LINE",
"864 280 LINE"
);
},
{
closed = 1;
nodes = (
"50 630 LINE",
"845 630 LINE",
"845 700 LINE",
"50 700 LINE"
);
},
{
closed = 1;
nodes = (
"781 453 LINE",
"845 453 LINE",
"845 700 LINE",
"562 700 LINE"
);
},
{
closed = 1;
nodes = (
"282 362 LINE",
"614 362 LINE",
"614 432 LINE",
"282 432 LINE"
);
},
{
closed = 1;
nodes = (
"130 0 LINE",
"415 0 LINE",
"415 700 LINE",
"130 700 LINE"
);
},
{
closed = 1;
nodes = (
"522 362 LINE",
"571 236 LINE",
"630 236 LINE",
"630 537 LINE",
"564 537 LINE",
"522 432 LINE"
);
}
);
width = 914;
}
);
unicode = 0045;
},
{
glyphname = G;
lastChange = "2018-05-05 05:16:10 +0000";
layers = (
{
layerId = "437D673D-D5CC-46D2-BD76-0DB95BEFF2D4";
paths = (
{
closed = 1;
nodes = (
"903 276 LINE",
"957 216 LINE",
"824 104 OFFCURVE",
"720 84 OFFCURVE",
"645 79 CURVE SMOOTH",
"487 70 OFFCURVE",
"396 190 OFFCURVE",
"396 370 CURVE SMOOTH",
"396 508 OFFCURVE",
"436 641 OFFCURVE",
"555 641 CURVE SMOOTH",
"666 641 OFFCURVE",
"703 555 OFFCURVE",
"708 418 CURVE",
"984 418 LINE",
"951 581 OFFCURVE",
"791 710 OFFCURVE",
"548 710 CURVE SMOOTH",
"271 710 OFFCURVE",
"70 542 OFFCURVE",
"70 350 CURVE SMOOTH",
"70 156 OFFCURVE",
"277 -10 OFFCURVE",
"548 -10 CURVE SMOOTH",
"730 -10 OFFCURVE",
"888 65 OFFCURVE",
"989 171 CURVE",
"995 125 LINE"
);
},
{
closed = 1;
nodes = (
"916 488 LINE",
"916 418 LINE",
"994 418 LINE",
"994 488 LINE"
);
},
{
closed = 1;
nodes = (
"740 86 LINE",
"770 57 LINE",
"809 0 LINE",
"984 0 LINE",
"984 318 LINE",
"740 318 LINE"
);
},
{
closed = 1;
nodes = (
"615 248 LINE",
"740 248 LINE",
"740 318 LINE",
"615 318 LINE"
);
}
);
width = 1019;
}
);
unicode = 0047;
},
{
glyphname = I;
lastChange = "2018-05-21 13:03:35 +0000";
layers = (
{
layerId = "437D673D-D5CC-46D2-BD76-0DB95BEFF2D4";
paths = (
{
closed = 1;
nodes = (
"22 70 LINE",
"22 0 LINE",
"476 0 LINE",
"476 70 LINE"
);
},
{
closed = 1;
nodes = (
"101 0 LINE",
"396 0 LINE",
"396 700 LINE",
"101 700 LINE"
);
},
{
closed = 1;
nodes = (
"22 700 LINE",
"22 630 LINE",
"476 630 LINE",
"476 700 LINE"
);
}
);
width = 497;
}
);
unicode = 0049;
},
{
glyphname = N;
lastChange = "2018-04-30 10:47:57 +0000";
layers = (
{
layerId = "437D673D-D5CC-46D2-BD76-0DB95BEFF2D4";
paths = (
{
closed = 1;
nodes = (
"138 0 LINE",
"213 0 LINE",
"213 700 LINE",
"138 700 LINE"
);
},
{
closed = 1;
nodes = (
"742 0 LINE",
"817 0 LINE",
"817 700 LINE",
"742 700 LINE"
);
},
{
closed = 1;
nodes = (
"620 0 LINE",
"756 0 LINE",
"756 275 LINE",
"426 700 LINE",
"213 700 LINE",
"53 700 LINE"
);
},
{
closed = 1;
nodes = (
"213 0 LINE",
"301 0 LINE",
"301 70 LINE",
"213 70 LINE"
);
},
{
closed = 1;
nodes = (
"53 0 LINE",
"138 0 LINE",
"138 70 LINE",
"53 70 LINE"
);
},
{
closed = 1;
nodes = (
"654 630 LINE",
"742 630 LINE",
"742 700 LINE",
"654 700 LINE"
);
},
{
closed = 1;
nodes = (
"817 630 LINE",
"902 630 LINE",
"902 700 LINE",
"817 700 LINE"
);
},
{
closed = 1;
nodes = (
"50 630 LINE",
"138 630 LINE",
"138 700 LINE",
"50 700 LINE"
);
}
);
width = 952;
}
);
unicode = 004E;
},
{
glyphname = P;
lastChange = "2018-05-21 13:04:19 +0000";
layers = (
{
layerId = "437D673D-D5CC-46D2-BD76-0DB95BEFF2D4";
paths = (
{
closed = 1;
nodes = (
"471 630 LINE SMOOTH",
"609 630 OFFCURVE",
"653 531 OFFCURVE",
"653 454 CURVE SMOOTH",
"653 362 OFFCURVE",
"628 267 OFFCURVE",
"504 267 CURVE SMOOTH",
"476 267 OFFCURVE",
"444 271 OFFCURVE",
"405 282 CURVE",
"395 224 LINE",
"467 206 OFFCURVE",
"535 197 OFFCURVE",
"596 197 CURVE SMOOTH",
"827 197 OFFCURVE",
"972 316 OFFCURVE",
"972 454 CURVE SMOOTH",
"972 616 OFFCURVE",
"794 700 OFFCURVE",
"641 700 CURVE SMOOTH",
"416 700 LINE",
"416 630 LINE"
);
},
{
closed = 1;
nodes = (
"53 70 LINE",
"53 0 LINE",
"490 0 LINE",
"490 70 LINE"
);
},
{
closed = 1;
nodes = (
"121 0 LINE",
"416 0 LINE",
"416 700 LINE",
"121 700 LINE"
);
}
);
width = 992;
}
);
unicode = 0050;
},
{
glyphname = R;
lastChange = "2018-05-21 13:05:40 +0000";
layers = (
{
layerId = "437D673D-D5CC-46D2-BD76-0DB95BEFF2D4";
paths = (
{
closed = 1;
nodes = (
"43 70 LINE",
"43 0 LINE",
"490 0 LINE",
"490 70 LINE"
);
},
{
closed = 1;
nodes = (
"416 630 LINE",
"502 630 LINE",
"579 630 OFFCURVE",
"629 566 OFFCURVE",
"629 497 CURVE",
"948 497 LINE",
"948 627 OFFCURVE",
"770 700 OFFCURVE",
"641 700 CURVE",
"416 700 LINE"
);
},
{
closed = 1;
nodes = (
"121 0 LINE",
"416 0 LINE",
"416 700 LINE",
"121 700 LINE"
);
},
{
closed = 1;
nodes = (
"613 70 LINE",
"613 0 LINE",
"959 0 LINE",
"959 70 LINE"
);
},
{
closed = 1;
nodes = (
"629 400 OFFCURVE",
"549 354 OFFCURVE",
"475 354 CURVE",
"385 354 LINE",
"385 284 LINE",
"562 284 LINE",
"793 284 OFFCURVE",
"948 342 OFFCURVE",
"948 497 CURVE",
"629 497 LINE"
);
},
{
closed = 1;
nodes = (
"479 321 LINE",
"613 0 LINE",
"933 0 LINE",
"824 248 LINE SMOOTH",
"803 296 OFFCURVE",
"757 321 OFFCURVE",
"707 321 CURVE"
);
}
);
width = 1032;
}
);
unicode = 0052;
},
{
glyphname = Z;
lastChange = "2018-04-30 10:47:37 +0000";
layers = (
{
layerId = "437D673D-D5CC-46D2-BD76-0DB95BEFF2D4";
paths = (
{
closed = 1;
nodes = (
"886 700 LINE",
"767 700 LINE",
"554 700 LINE",
"50 46 LINE",
"78 0 LINE",
"380 0 LINE",
"898 681 LINE"
);
},
{
closed = 1;
nodes = (
"174 70 LINE",
"174 0 LINE",
"906 0 LINE",
"906 70 LINE"
);
},
{
closed = 1;
nodes = (
"801 300 LINE",
"571 0 LINE",
"906 0 LINE",
"906 300 LINE"
);
},
{
closed = 1;
nodes = (
"97 700 LINE",
"97 630 LINE",
"812 630 LINE",
"812 700 LINE"
);
},
{
closed = 1;
nodes = (
"97 700 LINE",
"97 413 LINE",
"171 413 LINE",
"380 700 LINE"
);
}
);
width = 956;
}
);
unicode = 005A;
},
{
glyphname = a;
lastChange = "2018-05-21 11:33:08 +0000";
layers = (
{
layerId = "437D673D-D5CC-46D2-BD76-0DB95BEFF2D4";
paths = (
{
closed = 1;
nodes = (
"25 34 OFFCURVE",
"111 -10 OFFCURVE",
"219 -10 CURVE SMOOTH",
"320 -10 OFFCURVE",
"441 28 OFFCURVE",
"527 88 CURVE",
"527 165 LINE",
"467 124 OFFCURVE",
"412 107 OFFCURVE",
"368 107 CURVE SMOOTH",
"310 107 OFFCURVE",
"273 137 OFFCURVE",
"273 194 CURVE SMOOTH",
"273 259 OFFCURVE",
"329 284 OFFCURVE",
"413 284 CURVE SMOOTH",
"477 284 LINE",
"477 341 LINE",
"388 341 LINE SMOOTH",
"220 341 OFFCURVE",
"25 309 OFFCURVE",
"25 154 CURVE SMOOTH"
);
},
{
closed = 1;
nodes = (
"272 414 OFFCURVE",
"312 428 OFFCURVE",
"370 428 CURVE SMOOTH",
"415 428 OFFCURVE",
"449 412 OFFCURVE",
"449 327 CURVE SMOOTH",
"449 0 LINE",
"697 0 LINE",
"697 334 LINE",
"697 481 OFFCURVE",
"617 531 OFFCURVE",
"462 531 CURVE SMOOTH",
"350 531 OFFCURVE",
"250 505 OFFCURVE",
"195 380 CURVE",
"217 353 LINE"
);
},
{
closed = 1;
nodes = (
"697 0 LINE",
"772 0 LINE",
"772 70 LINE",
"697 70 LINE"
);
},
{
closed = 1;
nodes = (
"217 353 LINE",
"245 520 LINE",
"176 532 LINE",
"148 365 LINE"
);
}
);
width = 797;
},
{
associatedMasterId = "437D673D-D5CC-46D2-BD76-0DB95BEFF2D4";
layerId = "AFA8A281-5CFC-4605-8FE3-A480B7FB0E32";
name = "Apr 30 18, 17:46";
paths = (
{
closed = 1;
nodes = (
"25 34 OFFCURVE",
"111 -10 OFFCURVE",
"219 -10 CURVE SMOOTH",
"320 -10 OFFCURVE",
"441 28 OFFCURVE",
"527 88 CURVE",
"527 165 LINE",
"467 124 OFFCURVE",
"412 107 OFFCURVE",
"368 107 CURVE SMOOTH",
"310 107 OFFCURVE",
"273 137 OFFCURVE",
"273 194 CURVE SMOOTH",
"273 259 OFFCURVE",
"329 284 OFFCURVE",
"413 284 CURVE SMOOTH",
"477 284 LINE",
"477 341 LINE",
"388 341 LINE SMOOTH",
"220 341 OFFCURVE",
"25 309 OFFCURVE",
"25 154 CURVE SMOOTH"
);
},
{
closed = 1;
nodes = (
"248 414 OFFCURVE",
"298 428 OFFCURVE",
"340 428 CURVE SMOOTH",
"405 428 OFFCURVE",
"449 412 OFFCURVE",
"449 327 CURVE SMOOTH",
"449 0 LINE",
"697 0 LINE",
"697 334 LINE",
"697 481 OFFCURVE",
"588 531 OFFCURVE",
"462 531 CURVE SMOOTH",
"371 531 OFFCURVE",
"270 505 OFFCURVE",
"195 450 CURVE",
"195 373 LINE"
);
},
{
closed = 1;
nodes = (
"195 373 LINE",
"195 509 LINE",
"125 509 LINE",
"125 373 LINE"
);
},
{
closed = 1;
nodes = (
"697 0 LINE",
"772 0 LINE",
"772 70 LINE",
"697 70 LINE"
);
}
);
width = 797;
},
{
associatedMasterId = "437D673D-D5CC-46D2-BD76-0DB95BEFF2D4";
layerId = "B68FB3BA-39E0-455C-966F-DFF5E9DC8673";
name = "May 1 18, 09:54";
paths = (
{
closed = 1;
nodes = (
"25 34 OFFCURVE",
"111 -10 OFFCURVE",
"219 -10 CURVE SMOOTH",
"320 -10 OFFCURVE",
"441 28 OFFCURVE",
"527 88 CURVE",
"527 165 LINE",
"467 124 OFFCURVE",
"412 107 OFFCURVE",
"368 107 CURVE SMOOTH",
"310 107 OFFCURVE",
"273 137 OFFCURVE",
"273 194 CURVE SMOOTH",
"273 259 OFFCURVE",
"329 284 OFFCURVE",
"413 284 CURVE SMOOTH",
"477 284 LINE",
"477 341 LINE",
"388 341 LINE SMOOTH",
"220 341 OFFCURVE",
"25 309 OFFCURVE",
"25 154 CURVE SMOOTH"
);
},
{
closed = 1;
nodes = (
"248 414 OFFCURVE",
"298 428 OFFCURVE",
"340 428 CURVE SMOOTH",
"405 428 OFFCURVE",
"449 412 OFFCURVE",
"449 327 CURVE SMOOTH",
"449 0 LINE",
"697 0 LINE",
"697 334 LINE",
"697 481 OFFCURVE",
"588 531 OFFCURVE",
"462 531 CURVE SMOOTH",
"351 531 OFFCURVE",
"250 505 OFFCURVE",
"175 420 CURVE",
"207 373 LINE"
);
},
{
closed = 1;
nodes = (
"207 373 LINE",
"232 520 LINE",
"163 532 LINE",
"138 385 LINE"
);
},
{
closed = 1;
nodes = (
"697 0 LINE",
"772 0 LINE",
"772 70 LINE",
"697 70 LINE"
);
}
);
width = 797;
},
{
associatedMasterId = "437D673D-D5CC-46D2-BD76-0DB95BEFF2D4";
layerId = "82A90299-0F46-42F3-B806-1F94B08B3A6C";
name = "May 8 18, 11:58";
paths = (
{
closed = 1;
nodes = (
"25 34 OFFCURVE",
"111 -10 OFFCURVE",
"219 -10 CURVE SMOOTH",
"320 -10 OFFCURVE",
"441 28 OFFCURVE",
"527 88 CURVE",
"527 165 LINE",
"467 124 OFFCURVE",
"412 107 OFFCURVE",
"368 107 CURVE SMOOTH",
"310 107 OFFCURVE",
"273 137 OFFCURVE",
"273 194 CURVE SMOOTH",
"273 259 OFFCURVE",
"329 284 OFFCURVE",
"413 284 CURVE SMOOTH",
"477 284 LINE",
"477 341 LINE",
"388 341 LINE SMOOTH",
"220 341 OFFCURVE",
"25 309 OFFCURVE",
"25 154 CURVE SMOOTH"
);
},
{
closed = 1;
nodes = (
"370 478 LINE",
"415 478 OFFCURVE",
"449 462 OFFCURVE",
"449 407 CURVE SMOOTH",
"449 0 LINE",
"697 0 LINE",
"697 314 LINE",
"697 511 OFFCURVE",
"515 527 OFFCURVE",
"360 527 CURVE"
);
},
{
closed = 1;
nodes = (
"697 0 LINE",
"772 0 LINE",
"772 70 LINE",
"697 70 LINE"
);
},
{
closed = 1;
nodes = (
"370 478 LINE",
"320 478 OFFCURVE",
"265 436 OFFCURVE",
"239 369 CURVE",
"62 427 LINE",
"132 504 OFFCURVE",
"236 527 OFFCURVE",
"360 527 CURVE"
);
}
);
width = 797;
}
);
unicode = 0061;
},
{
glyphname = b;
lastChange = "2018-04-30 21:22:15 +0000";
layers = (
{
layerId = "437D673D-D5CC-46D2-BD76-0DB95BEFF2D4";
paths = (
{
closed = 1;
nodes = (
"100 0 LINE",
"353 0 LINE",
"353 88 LINE",
"355 154 LINE",
"355 377 LINE",
"358 399 LINE",
"358 700 LINE",
"100 700 LINE"
);
},
{
closed = 1;
nodes = (
"100 630 LINE",
"100 700 LINE",
"25 700 LINE",
"25 630 LINE"
);
},
{
closed = 1;
nodes = (
"100 0 LINE",
"100 70 LINE",
"25 70 LINE",
"25 0 LINE"
);
},
{
closed = 1;
nodes = (
"482 530 OFFCURVE",
"405 497 OFFCURVE",
"353 450 CURVE SMOOTH",
"307 408 OFFCURVE",
"289 333 OFFCURVE",
"289 263 CURVE SMOOTH",
"289 182 OFFCURVE",
"314 118 OFFCURVE",
"357 77 CURVE SMOOTH",
"402 35 OFFCURVE",
"483 -6 OFFCURVE",
"558 -6 CURVE SMOOTH",
"775 -6 OFFCURVE",
"896 114 OFFCURVE",
"896 263 CURVE SMOOTH",
"896 386 OFFCURVE",
"786 530 OFFCURVE",
"568 530 CURVE SMOOTH"
);
},
{
closed = 1;
nodes = (
"545 438 OFFCURVE",
"597 381 OFFCURVE",
"597 264 CURVE SMOOTH",
"597 146 OFFCURVE",
"541 81 OFFCURVE",
"470 81 CURVE SMOOTH",
"408 81 OFFCURVE",
"349 144 OFFCURVE",
"351 257 CURVE SMOOTH",
"353 365 OFFCURVE",
"387 438 OFFCURVE",
"470 438 CURVE SMOOTH"
);
}
);
width = 921;
}
);
unicode = 0062;
},
{
glyphname = d;
lastChange = "2018-05-21 11:45:13 +0000";
layers = (
{
layerId = "437D673D-D5CC-46D2-BD76-0DB95BEFF2D4";
paths = (
{
closed = 1;
nodes = (
"563 700 LINE",
"563 399 LINE",
"566 377 LINE",
"566 154 LINE",
"563 133 LINE",
"563 113 LINE",
"568 88 LINE",
"568 0 LINE",
"821 0 LINE",
"821 700 LINE"
);
},
{
closed = 1;
nodes = (
"821 70 LINE",
"821 0 LINE",
"899 0 LINE",
"899 70 LINE"
);
},
{
closed = 1;
nodes = (
"488 700 LINE",
"488 630 LINE",
"563 630 LINE",
"563 700 LINE"
);
},
{
closed = 1;
nodes = (
"520 -10 OFFCURVE",
"632 83 OFFCURVE",
"632 257 CURVE SMOOTH",
"632 413 OFFCURVE",
"514 530 OFFCURVE",
"363 530 CURVE SMOOTH",
"146 530 OFFCURVE",
"25 406 OFFCURVE",
"25 257 CURVE SMOOTH",
"25 134 OFFCURVE",
"135 -10 OFFCURVE",
"353 -10 CURVE SMOOTH"
);
},
{
closed = 1;
nodes = (
"376 82 OFFCURVE",
"324 139 OFFCURVE",
"324 256 CURVE SMOOTH",
"324 374 OFFCURVE",
"380 439 OFFCURVE",
"451 439 CURVE SMOOTH",
"513 439 OFFCURVE",
"572 376 OFFCURVE",
"570 263 CURVE SMOOTH",
"568 155 OFFCURVE",
"534 82 OFFCURVE",
"451 82 CURVE SMOOTH"
);
}
);
width = 924;
}
);
unicode = 0064;
},
{
glyphname = e;
lastChange = "2018-04-30 21:47:06 +0000";
layers = (
{
layerId = "437D673D-D5CC-46D2-BD76-0DB95BEFF2D4";
paths = (
{
closed = 1;
nodes = (
"257 265 LINE",
"297 185 LINE",
"808 314 LINE",
"777 396 LINE"
);
},
{
closed = 1;
nodes = (
"747 204 LINE",
"807 193 LINE",
"697 102 OFFCURVE",
"572 60 OFFCURVE",
"492 60 CURVE SMOOTH",
"381 60 OFFCURVE",
"296 136 OFFCURVE",
"296 285 CURVE SMOOTH",
"296 428 OFFCURVE",
"376 465 OFFCURVE",
"439 465 CURVE SMOOTH",
"524 465 OFFCURVE",
"577 398 OFFCURVE",
"575 275 CURVE",
"808 314 LINE",
"818 340 LINE",
"815 371 OFFCURVE",
"802 395 OFFCURVE",
"779 421 CURVE SMOOTH",
"717 491 OFFCURVE",
"620 530 OFFCURVE",
"449 530 CURVE SMOOTH",
"162 530 OFFCURVE",
"25 419 OFFCURVE",
"25 256 CURVE SMOOTH",
"25 76 OFFCURVE",
"172 -10 OFFCURVE",
"442 -10 CURVE SMOOTH",
"632 -10 OFFCURVE",
"749 57 OFFCURVE",
"836 140 CURVE",
"849 89 LINE"
);
}
);
width = 843;
},
{
associatedMasterId = "437D673D-D5CC-46D2-BD76-0DB95BEFF2D4";
backgroundImage = {
crop = "{{0, 0}, {1389.42, 1068.48}}";
imagePath = "pkp crke sken.jpg";
transform = "{2.77, 0, 0, 2.77, -53, -2242}";
};
layerId = "51E008E9-B23A-4D29-B1BA-2E064A7F96DF";
name = "Apr 30 18, 17:29";
visible = 1;
width = 843;
}
);
unicode = 0065;
},
{
glyphname = f;
lastChange = "2018-05-06 16:54:46 +0000";
layers = (
{
layerId = "437D673D-D5CC-46D2-BD76-0DB95BEFF2D4";
paths = (
{
closed = 1;
nodes = (
"25 450 LINE",
"466 450 LINE",
"466 520 LINE",
"25 520 LINE"
);
},
{
closed = 1;
nodes = (
"25 0 LINE",
"100 0 LINE",
"100 70 LINE",
"25 70 LINE"
);
},
{
closed = 1;
nodes = (
"354 0 LINE",
"429 0 LINE",
"429 70 LINE",
"354 70 LINE"
);
},
{
closed = 1;
nodes = (
"528 559 LINE",
"517 684 OFFCURVE",
"429 710 OFFCURVE",
"331 710 CURVE SMOOTH",
"192 710 OFFCURVE",
"96 657 OFFCURVE",
"100 540 CURVE",
"100 0 LINE",
"354 0 LINE",
"354 543 LINE SMOOTH",
"354 588 OFFCURVE",
"380 607 OFFCURVE",
"433 607 CURVE SMOOTH",
"483 607 OFFCURVE",
"503 590 OFFCURVE",
"516 532 CURVE"
);
},
{
closed = 1;
nodes = (
"586 700 LINE",
"517 700 LINE",
"516 532 LINE",
"586 532 LINE"
);
}
);
width = 600;
}
);
unicode = 0066;
},
{
glyphname = h;
lastChange = "2018-05-21 12:11:39 +0000";
layers = (
{
layerId = "437D673D-D5CC-46D2-BD76-0DB95BEFF2D4";
paths = (
{
closed = 1;
nodes = (
"100 0 LINE",
"354 0 LINE",
"354 700 LINE",
"100 700 LINE"
);
},
{
closed = 1;
nodes = (
"492 447 OFFCURVE",
"608 417 OFFCURVE",
"608 286 CURVE",
"608 0 LINE",
"856 0 LINE",
"856 334 LINE",
"856 588 OFFCURVE",
"532 553 OFFCURVE",
"354 430 CURVE",
"354 353 LINE"
);
},
{
closed = 1;
nodes = (
"25 630 LINE",
"100 630 LINE",
"100 700 LINE",
"25 700 LINE"
);
},
{
closed = 1;
nodes = (
"25 0 LINE",
"100 0 LINE",
"100 70 LINE",
"25 70 LINE"
);
},
{
closed = 1;
nodes = (
"856 0 LINE",
"931 0 LINE",
"931 70 LINE",
"856 70 LINE"
);
},
{
closed = 1;
nodes = (
"354 0 LINE",
"429 0 LINE",
"429 70 LINE",
"354 70 LINE"
);
}
);
width = 956;
}
);
unicode = 0068;
},
{
glyphname = i;
lastChange = "2018-04-30 22:16:58 +0000";
layers = (
{
layerId = "437D673D-D5CC-46D2-BD76-0DB95BEFF2D4";
paths = (
{
closed = 1;
nodes = (
"100 0 LINE",
"354 0 LINE",
"354 520 LINE",
"100 520 LINE"
);
},
{
closed = 1;
nodes = (
"25 450 LINE",
"100 450 LINE",
"100 520 LINE",
"25 520 LINE"
);
},
{
closed = 1;
nodes = (
"25 0 LINE",
"100 0 LINE",
"100 70 LINE",
"25 70 LINE"
);
},
{
closed = 1;
nodes = (
"354 0 LINE",
"429 0 LINE",
"429 70 LINE",
"354 70 LINE"
);
},
{
closed = 1;
nodes = (
"325 559 OFFCURVE",
"373 586 OFFCURVE",
"373 642 CURVE SMOOTH",
"373 697 OFFCURVE",
"325 724 OFFCURVE",
"227 724 CURVE SMOOTH",
"129 724 OFFCURVE",
"81 697 OFFCURVE",
"81 642 CURVE SMOOTH",
"81 586 OFFCURVE",
"129 559 OFFCURVE",
"227 559 CURVE SMOOTH"
);
}
);
width = 454;
},
{
associatedMasterId = "437D673D-D5CC-46D2-BD76-0DB95BEFF2D4";
layerId = "92411D65-13C0-4B4C-BF28-58EFDFAE8588";
name = "May 1 18, 00:16";
paths = (
{
closed = 1;
nodes = (
"100 0 LINE",
"354 0 LINE",
"354 520 LINE",
"100 520 LINE"
);
},
{
closed = 1;
nodes = (
"25 450 LINE",
"100 450 LINE",
"100 520 LINE",
"25 520 LINE"
);
},
{
closed = 1;
nodes = (
"25 0 LINE",
"100 0 LINE",
"100 70 LINE",
"25 70 LINE"
);
},
{
closed = 1;
nodes = (
"354 0 LINE",
"429 0 LINE",
"429 70 LINE",
"354 70 LINE"
);
},
{
closed = 1;
nodes = (
"100 602 LINE",
"354 602 LINE",
"354 700 LINE",
"100 700 LINE"
);
}
);
width = 454;
}
);
unicode = 0069;
},
{
glyphname = k;
lastChange = "2018-04-30 21:44:16 +0000";
layers = (
{
layerId = "437D673D-D5CC-46D2-BD76-0DB95BEFF2D4";
paths = (
{
closed = 1;
nodes = (
"100 0 LINE",
"354 0 LINE",
"354 700 LINE",
"100 700 LINE"
);
},
{
closed = 1;
nodes = (
"25 630 LINE",
"100 630 LINE",
"100 700 LINE",
"25 700 LINE"
);
},
{
closed = 1;
nodes = (
"25 0 LINE",
"100 0 LINE",
"100 70 LINE",
"25 70 LINE"
);
},
{
closed = 1;
nodes = (
"836 0 LINE",
"971 0 LINE",
"971 70 LINE",
"836 70 LINE"
);
},
{
closed = 1;
nodes = (
"383 279 LINE",
"604 0 LINE",
"866 0 LINE",
"894 46 LINE",
"617 389 LINE"
);
},
{
closed = 1;
nodes = (
"520 450 LINE",
"871 450 LINE",
"958 489 LINE",
"947 520 LINE",
"520 520 LINE"
);
},
{
closed = 1;
nodes = (
"339 213 LINE",
"871 450 LINE",
"842 514 LINE",
"311 277 LINE"
);
},
{
closed = 1;
nodes = (
"630 406 LINE",
"754 445 LINE",
"591 461 LINE"
);
}
);
width = 996;
},
{
associatedMasterId = "437D673D-D5CC-46D2-BD76-0DB95BEFF2D4";
backgroundImage = {
crop = "{{0, 0}, {1389.42, 1068.48}}";
imagePath = "pkp crke sken.jpg";
transform = "{2.77, 0, 0, 2.77, -871, -2236}";
};
layerId = "B133A10A-BF59-415A-A7A0-4D8B9679711F";
name = "Apr 30 18, 23:43";
paths = (
{
closed = 1;
nodes = (
"132 0 LINE",
"386 0 LINE",
"386 700 LINE",
"132 700 LINE"
);
},
{
closed = 1;
nodes = (
"57 630 LINE",
"132 630 LINE",
"132 700 LINE",
"57 700 LINE"
);
},
{
closed = 1;
nodes = (
"57 0 LINE",
"132 0 LINE",
"132 70 LINE",
"57 70 LINE"
);
},
{
closed = 1;
nodes = (
"868 0 LINE",
"1003 0 LINE",
"1003 70 LINE",
"868 70 LINE"
);
},
{
closed = 1;
nodes = (
"415 279 LINE",
"636 0 LINE",
"898 0 LINE",
"926 46 LINE",
"649 389 LINE"
);
},
{
closed = 1;
nodes = (
"552 450 LINE",
"903 450 LINE",
"990 489 LINE",
"979 520 LINE",
"552 520 LINE"
);
},
{
closed = 1;
nodes = (
"371 213 LINE",
"903 450 LINE",
"874 514 LINE",
"343 277 LINE"
);
},
{
closed = 1;
nodes = (
"662 406 LINE",
"786 445 LINE",
"623 461 LINE"
);
}
);
width = 600;
}
);
unicode = 006B;
},
{
glyphname = l;
lastChange = "2018-04-30 15:35:14 +0000";
layers = (
{
layerId = "437D673D-D5CC-46D2-BD76-0DB95BEFF2D4";
paths = (
{
closed = 1;
nodes = (
"100 0 LINE",
"354 0 LINE",
"354 700 LINE",
"100 700 LINE"
);
},
{
closed = 1;
nodes = (
"25 630 LINE",
"100 630 LINE",
"100 700 LINE",
"25 700 LINE"
);
},
{
closed = 1;
nodes = (
"25 0 LINE",
"100 0 LINE",
"100 70 LINE",
"25 70 LINE"
);
},
{
closed = 1;
nodes = (
"354 0 LINE",
"429 0 LINE",
"429 70 LINE",
"354 70 LINE"
);
}
);
width = 454;
}
);
unicode = 006C;
},
{
glyphname = m;
lastChange = "2018-05-21 12:06:22 +0000";
layers = (
{
guideLines = (
{
position = "{354, 455}";
},
{
position = "{354, 385}";
}
);
layerId = "437D673D-D5CC-46D2-BD76-0DB95BEFF2D4";
paths = (
{
closed = 1;
nodes = (
"100 0 LINE",
"354 0 LINE",
"354 520 LINE",
"100 520 LINE"
);
},
{
closed = 1;
nodes = (
"379 406 OFFCURVE",
"431 425 OFFCURVE",
"473 425 CURVE SMOOTH",
"536 425 OFFCURVE",
"578 382 OFFCURVE",
"578 303 CURVE",
"578 0 LINE",
"826 0 LINE",
"826 421 LINE",
"812 421 LINE",
"782 499 OFFCURVE",
"705 530 OFFCURVE",
"616 530 CURVE SMOOTH",
"518 530 OFFCURVE",
"406 492 OFFCURVE",
"324 436 CURVE",
"324 364 LINE"
);
},
{
closed = 1;
nodes = (
"25 450 LINE",
"100 450 LINE",
"100 520 LINE",
"25 520 LINE"
);
},
{
closed = 1;
nodes = (
"25 0 LINE",
"100 0 LINE",
"100 70 LINE",
"25 70 LINE"
);
},
{
closed = 1;
nodes = (
"826 0 LINE",
"901 0 LINE",
"901 70 LINE",
"826 70 LINE"
);
},
{
closed = 1;
nodes = (
"842 406 OFFCURVE",
"894 425 OFFCURVE",
"936 425 CURVE SMOOTH",
"999 425 OFFCURVE",
"1041 382 OFFCURVE",
"1041 303 CURVE",
"1041 0 LINE",
"1289 0 LINE",
"1289 340 LINE",
"1289 478 OFFCURVE",
"1194 530 OFFCURVE",
"1079 530 CURVE SMOOTH",
"981 530 OFFCURVE",
"869 505 OFFCURVE",
"787 452 CURVE",
"787 354 LINE"
);
},
{
closed = 1;
nodes = (
"1289 0 LINE",
"1364 0 LINE",
"1364 70 LINE",
"1289 70 LINE"
);
},
{
closed = 1;
nodes = (
"354 0 LINE",
"429 0 LINE",
"429 70 LINE",
"354 70 LINE"
);
}
);
width = 1389;
},
{
associatedMasterId = "437D673D-D5CC-46D2-BD76-0DB95BEFF2D4";
backgroundImage = {
crop = "{{0, 0}, {1389.42, 1068.48}}";
imagePath = "pkp crke sken.jpg";
transform = "{2.77, 0, 0, 2.77, -39, -1551}";
};
layerId = "74F2CE08-B14D-42C0-A47E-4A15644D158D";
name = "Apr 30 18, 17:29";
width = 1419;
},
{
associatedMasterId = "437D673D-D5CC-46D2-BD76-0DB95BEFF2D4";
layerId = "2D01763B-E842-4E47-B3DE-55B2C1B388C2";
name = "Apr 30 18, 20:32";
paths = (
{
closed = 1;
nodes = (
"100 0 LINE",
"354 0 LINE",
"354 520 LINE",
"100 520 LINE"
);
},
{
closed = 1;
nodes = (
"379 406 OFFCURVE",
"431 425 OFFCURVE",
"473 425 CURVE SMOOTH",
"536 425 OFFCURVE",
"578 382 OFFCURVE",
"578 303 CURVE",
"578 0 LINE",
"826 0 LINE",
"826 340 LINE",
"826 478 OFFCURVE",
"731 530 OFFCURVE",
"616 530 CURVE SMOOTH",
"518 530 OFFCURVE",
"406 492 OFFCURVE",
"324 436 CURVE",
"324 364 LINE"
);
},
{
closed = 1;
nodes = (
"25 450 LINE",
"100 450 LINE",
"100 520 LINE",
"25 520 LINE"
);
},
{
closed = 1;
nodes = (
"25 0 LINE",
"100 0 LINE",
"100 70 LINE",
"25 70 LINE"
);
},
{
closed = 1;
nodes = (
"826 0 LINE",
"901 0 LINE",
"901 70 LINE",
"826 70 LINE"
);
},
{
closed = 1;
nodes = (
"842 406 OFFCURVE",
"894 425 OFFCURVE",
"936 425 CURVE SMOOTH",
"999 425 OFFCURVE",
"1041 382 OFFCURVE",
"1041 303 CURVE",
"1041 0 LINE",
"1289 0 LINE",
"1289 340 LINE",
"1289 478 OFFCURVE",
"1194 530 OFFCURVE",
"1079 530 CURVE SMOOTH",
"981 530 OFFCURVE",
"869 492 OFFCURVE",
"787 436 CURVE",
"787 364 LINE"
);
},
{
closed = 1;
nodes = (
"1289 0 LINE",
"1364 0 LINE",
"1364 70 LINE",
"1289 70 LINE"
);
},
{
closed = 1;
nodes = (
"354 0 LINE",
"429 0 LINE",
"429 70 LINE",
"354 70 LINE"
);
}
);
width = 1389;
}
);
unicode = 006D;
},
{
glyphname = n;
lastChange = "2018-05-21 12:11:22 +0000";
layers = (
{
guideLines = (
{
position = "{354, 450}";
},
{
position = "{354, 380}";
}
);
layerId = "437D673D-D5CC-46D2-BD76-0DB95BEFF2D4";
paths = (
{
closed = 1;
nodes = (
"100 0 LINE",
"354 0 LINE",
"354 520 LINE",
"100 520 LINE"
);
},
{
closed = 1;
nodes = (
"400 407 OFFCURVE",
"446 420 OFFCURVE",
"486 420 CURVE SMOOTH",
"557 420 OFFCURVE",
"608 381 OFFCURVE",
"608 292 CURVE",
"608 0 LINE",
"856 0 LINE",
"856 340 LINE",
"856 476 OFFCURVE",
"754 535 OFFCURVE",
"628 535 CURVE SMOOTH",
"540 535 OFFCURVE",
"440 506 OFFCURVE",
"354 450 CURVE",
"354 380 LINE"
);
},
{
closed = 1;
nodes = (
"25 450 LINE",
"100 450 LINE",
"100 520 LINE",
"25 520 LINE"
);
},
{
closed = 1;
nodes = (
"25 0 LINE",
"100 0 LINE",
"100 70 LINE",
"25 70 LINE"
);
},
{
closed = 1;
nodes = (
"856 0 LINE",
"931 0 LINE",
"931 70 LINE",
"856 70 LINE"
);
},
{
closed = 1;
nodes = (
"354 0 LINE",
"429 0 LINE",
"429 70 LINE",
"354 70 LINE"
);
}
);
width = 956;
},
{
associatedMasterId = "437D673D-D5CC-46D2-BD76-0DB95BEFF2D4";
guideLines = (
{
position = "{354, 455}";
},
{
position = "{354, 385}";
}
);
layerId = "2B1EA8FE-855F-4CBC-9952-62F2A2293E25";
name = "May 21 18, 14:08";
paths = (
{
closed = 1;
nodes = (
"408 415 OFFCURVE",
"459 433 OFFCURVE",
"501 433 CURVE SMOOTH",
"565 433 OFFCURVE",
"608 390 OFFCURVE",
"608 311 CURVE",
"608 25 LINE",
"856 25 LINE",
"856 359 LINE",
"856 497 OFFCURVE",
"761 549 OFFCURVE",
"646 549 CURVE SMOOTH",
"548 549 OFFCURVE",
"436 511 OFFCURVE",
"354 455 CURVE",
"354 378 LINE"
);
}
);
width = 956;
}
);
unicode = 006E;
},
{
glyphname = o;
lastChange = "2018-04-30 21:28:31 +0000";
layers = (
{
layerId = "437D673D-D5CC-46D2-BD76-0DB95BEFF2D4";
paths = (
{
closed = 1;
nodes = (
"20 76 OFFCURVE",
"167 -10 OFFCURVE",
"427 -10 CURVE SMOOTH",
"704 -10 OFFCURVE",
"841 101 OFFCURVE",
"841 264 CURVE SMOOTH",
"841 444 OFFCURVE",
"694 530 OFFCURVE",
"434 530 CURVE SMOOTH",
"157 530 OFFCURVE",
"20 419 OFFCURVE",
"20 251 CURVE SMOOTH"
);
},
{
closed = 1;
nodes = (
"281 444 OFFCURVE",
"361 481 OFFCURVE",
"424 481 CURVE SMOOTH",
"507 481 OFFCURVE",
"580 400 OFFCURVE",
"580 235 CURVE SMOOTH",
"580 77 OFFCURVE",
"500 40 OFFCURVE",
"437 40 CURVE SMOOTH",
"352 40 OFFCURVE",
"281 121 OFFCURVE",
"281 280 CURVE SMOOTH"
);
}
);
width = 861;
},
{
associatedMasterId = "437D673D-D5CC-46D2-BD76-0DB95BEFF2D4";
layerId = "80AF6ABE-55B9-48DA-AEC9-3973C12FA2B3";
name = "Apr 30 18, 23:26";
paths = (
{
closed = 1;
nodes = (
"25 76 OFFCURVE",
"172 -10 OFFCURVE",
"442 -10 CURVE",
"452 45 LINE",
"367 45 OFFCURVE",
"296 126 OFFCURVE",
"296 280 CURVE SMOOTH",
"296 434 OFFCURVE",
"376 471 OFFCURVE",
"439 471 CURVE",
"449 525 LINE",
"162 525 OFFCURVE",
"25 414 OFFCURVE",
"25 251 CURVE SMOOTH"
);
},
{
closed = 1;
nodes = (
"866 439 OFFCURVE",
"719 525 OFFCURVE",
"449 525 CURVE",
"439 471 LINE",
"522 469 OFFCURVE",
"595 390 OFFCURVE",
"595 235 CURVE SMOOTH",
"595 82 OFFCURVE",
"515 45 OFFCURVE",
"452 45 CURVE",
"442 -10 LINE",
"729 -10 OFFCURVE",
"866 101 OFFCURVE",
"866 264 CURVE SMOOTH"
);
}
);
width = 843;
}
);
unicode = 006F;
},
{
glyphname = r;
lastChange = "2018-05-21 11:08:04 +0000";
layers = (
{
layerId = "437D673D-D5CC-46D2-BD76-0DB95BEFF2D4";
paths = (
{
closed = 1;
nodes = (
"100 0 LINE",
"354 0 LINE",
"354 520 LINE",
"100 520 LINE"
);
},
{
closed = 1;
nodes = (
"25 450 LINE",
"100 450 LINE",
"100 520 LINE",
"25 520 LINE"
);
},
{
closed = 1;
nodes = (
"25 0 LINE",
"100 0 LINE",
"100 70 LINE",
"25 70 LINE"
);
},
{
closed = 1;
nodes = (
"354 0 LINE",
"429 0 LINE",
"429 70 LINE",
"354 70 LINE"
);
},
{
closed = 1;
nodes = (
"383 414 OFFCURVE",
"423 428 OFFCURVE",
"456 428 CURVE SMOOTH",
"482 428 OFFCURVE",
"500 425 OFFCURVE",
"514 413 CURVE",
"534 532 LINE",
"461 532 OFFCURVE",
"381 505 OFFCURVE",
"326 380 CURVE",
"348 353 LINE"
);
},
{
closed = 1;
nodes = (
"550 313 LINE",
"631 507 LINE",
"612 526 OFFCURVE",
"563 532 OFFCURVE",
"534 532 CURVE",
"498 322 LINE"
);
}
);
width = 600;
},
{
associatedMasterId = "437D673D-D5CC-46D2-BD76-0DB95BEFF2D4";
layerId = "09196DF4-DB5B-4FF6-A50C-874812E79190";
name = "May 8 18, 12:44";
paths = (
{
closed = 1;
nodes = (
"100 0 LINE",
"354 0 LINE",
"354 520 LINE",
"100 520 LINE"
);
},
{
closed = 1;
nodes = (
"492 447 OFFCURVE",
"608 417 OFFCURVE",
"608 286 CURVE",
"608 0 LINE",
"856 0 LINE",
"856 334 LINE",
"856 588 OFFCURVE",
"532 553 OFFCURVE",
"354 430 CURVE",
"354 353 LINE"
);
},
{
closed = 1;
nodes = (
"25 450 LINE",
"100 450 LINE",
"100 520 LINE",
"25 520 LINE"
);
},
{
closed = 1;
nodes = (
"25 0 LINE",
"100 0 LINE",
"100 70 LINE",
"25 70 LINE"
);
},
{
closed = 1;
nodes = (
"354 0 LINE",
"429 0 LINE",
"429 70 LINE",
"354 70 LINE"
);
}
);
width = 600;
},
{
associatedMasterId = "437D673D-D5CC-46D2-BD76-0DB95BEFF2D4";
layerId = "CE7F3E31-94F8-4BF2-AA1C-935797D69ECC";
name = "May 17 18, 15:55";
paths = (
{
closed = 1;
nodes = (
"100 0 LINE",
"354 0 LINE",
"354 520 LINE",
"100 520 LINE"
);
},
{
closed = 1;
nodes = (
"25 450 LINE",
"100 450 LINE",
"100 520 LINE",
"25 520 LINE"
);
},
{
closed = 1;
nodes = (
"25 0 LINE",
"100 0 LINE",
"100 70 LINE",
"25 70 LINE"
);
},
{
closed = 1;
nodes = (
"354 0 LINE",
"429 0 LINE",
"429 70 LINE",
"354 70 LINE"
);
},
{
closed = 1;
nodes = (
"308 379 LINE",
"348 256 LINE",
"471 459 LINE",
"582 322 LINE",
"771 468 LINE",
"493 640 LINE",
"308 374 LINE"
);
}
);
width = 600;
},
{
associatedMasterId = "437D673D-D5CC-46D2-BD76-0DB95BEFF2D4";
layerId = "DC1C1E47-F687-4A9A-BC95-7DA95A50F01D";
name = "May 17 18, 15:59";
paths = (
{
closed = 1;
nodes = (
"100 0 LINE",
"354 0 LINE",
"354 520 LINE",
"100 520 LINE"
);
},
{
closed = 1;
nodes = (
"25 450 LINE",
"100 450 LINE",
"100 520 LINE",
"25 520 LINE"
);
},
{
closed = 1;
nodes = (
"25 0 LINE",
"100 0 LINE",
"100 70 LINE",
"25 70 LINE"
);
},
{
closed = 1;
nodes = (
"354 0 LINE",
"429 0 LINE",
"429 70 LINE",
"354 70 LINE"
);
},
{
closed = 1;
nodes = (
"403 414 OFFCURVE",
"443 428 OFFCURVE",
"501 428 CURVE SMOOTH",
"546 428 OFFCURVE",
"580 412 OFFCURVE",
"580 327 CURVE",
"580 531 LINE",
"481 531 OFFCURVE",
"381 505 OFFCURVE",
"326 380 CURVE",
"348 353 LINE"
);
},
{
closed = 1;
nodes = (
"650 286 LINE",
"650 531 LINE",
"580 531 LINE",
"580 286 LINE"
);
}
);
width = 600;
},
{
associatedMasterId = "437D673D-D5CC-46D2-BD76-0DB95BEFF2D4";
layerId = "365FBD7D-BC0E-4810-BA27-5E08CAACA8F9";
name = "May 17 18, 16:08";
paths = (
{
closed = 1;
nodes = (
"100 0 LINE",
"354 0 LINE",
"354 520 LINE",
"100 520 LINE"
);
},
{
closed = 1;
nodes = (
"25 450 LINE",
"100 450 LINE",
"100 520 LINE",
"25 520 LINE"
);
},
{
closed = 1;
nodes = (
"25 0 LINE",
"100 0 LINE",
"100 70 LINE",
"25 70 LINE"
);
},
{
closed = 1;
nodes = (
"354 0 LINE",
"429 0 LINE",
"429 70 LINE",
"354 70 LINE"
);
},
{
closed = 1;
nodes = (
"403 414 OFFCURVE",
"443 428 OFFCURVE",
"501 428 CURVE SMOOTH",
"522 428 OFFCURVE",
"540 425 OFFCURVE",
"554 413 CURVE",
"554 531 LINE",
"481 531 OFFCURVE",
"381 505 OFFCURVE",
"326 380 CURVE",
"348 353 LINE"
);
},
{
closed = 1;
nodes = (
"624 286 LINE",
"624 531 LINE",
"554 531 LINE",
"554 286 LINE"
);
}
);
width = 600;
},
{
associatedMasterId = "437D673D-D5CC-46D2-BD76-0DB95BEFF2D4";
layerId = "85ED3010-D585-45C5-8C80-CCF9FFABBF0E";
name = "May 17 18, 16:31";
paths = (
{
closed = 1;
nodes = (
"100 0 LINE",
"354 0 LINE",
"354 520 LINE",
"100 520 LINE"
);
},
{
closed = 1;
nodes = (
"25 450 LINE",
"100 450 LINE",
"100 520 LINE",
"25 520 LINE"
);
},
{
closed = 1;
nodes = (
"25 0 LINE",
"100 0 LINE",
"100 70 LINE",
"25 70 LINE"
);
},
{
closed = 1;
nodes = (
"354 0 LINE",
"429 0 LINE",
"429 70 LINE",
"354 70 LINE"
);
},
{
closed = 1;
nodes = (
"383 414 OFFCURVE",
"423 428 OFFCURVE",
"451 428 CURVE SMOOTH",
"482 428 OFFCURVE",
"500 425 OFFCURVE",
"514 413 CURVE",
"534 532 LINE",
"461 532 OFFCURVE",
"381 505 OFFCURVE",
"326 380 CURVE",
"348 353 LINE"
);
},
{
closed = 1;
nodes = (
"567 310 LINE",
"611 520 LINE",
"586 527 OFFCURVE",
"563 532 OFFCURVE",
"534 532 CURVE",
"498 322 LINE"
);
}
);
visible = 1;
width = 600;
},
{
associatedMasterId = "437D673D-D5CC-46D2-BD76-0DB95BEFF2D4";
layerId = "124BFD81-532A-4BCC-87FB-66B0334D1D3B";
name = "May 21 18, 13:07";
paths = (
{
closed = 1;
nodes = (
"100 0 LINE",
"354 0 LINE",
"354 520 LINE",
"100 520 LINE"
);
},
{
closed = 1;
nodes = (
"25 450 LINE",
"100 450 LINE",
"100 520 LINE",
"25 520 LINE"
);
},
{
closed = 1;
nodes = (
"25 0 LINE",
"100 0 LINE",
"100 70 LINE",
"25 70 LINE"
);
},
{
closed = 1;
nodes = (
"354 0 LINE",
"429 0 LINE",
"429 70 LINE",
"354 70 LINE"
);
},
{
closed = 1;
nodes = (
"383 414 OFFCURVE",
"423 428 OFFCURVE",
"456 428 CURVE SMOOTH",
"482 428 OFFCURVE",
"500 425 OFFCURVE",
"514 413 CURVE",
"534 532 LINE",
"461 532 OFFCURVE",
"381 505 OFFCURVE",
"326 380 CURVE",
"348 353 LINE"
);
},
{
closed = 1;
nodes = (
"567 310 LINE",
"616 517 LINE",
"596 526 OFFCURVE",
"563 532 OFFCURVE",
"534 532 CURVE",
"498 322 LINE"
);
}
);
width = 600;
}
);
unicode = 0072;
},
{
glyphname = s;
lastChange = "2018-05-21 12:33:54 +0000";
layers = (
{
associatedMasterId = "437D673D-D5CC-46D2-BD76-0DB95BEFF2D4";
layerId = "81C30262-D773-4863-BF56-B1E03BD592A9";
name = "May 8 18, 11:48";
paths = (
{
closed = 1;
nodes = (
"416 374 LINE",
"343 512 LINE",
"195 403 LINE",
"533 242 LINE",
"534 18 LINE",
"289 -44 LINE",
"-9 64 LINE",
"138 189 LINE",
"300 35 LINE",
"480 95 LINE",
"482 153 LINE",
"131 297 LINE",
"147 496 LINE",
"337 588 LINE",
"549 489 LINE"
);
}
);
width = 600;
},
{
layerId = "437D673D-D5CC-46D2-BD76-0DB95BEFF2D4";
paths = (
{
closed = 1;
nodes = (
"111 293 OFFCURVE",
"184 244 OFFCURVE",
"348 211 CURVE SMOOTH",
"508 179 OFFCURVE",
"512 128 OFFCURVE",
"512 104 CURVE SMOOTH",
"512 65 OFFCURVE",
"467 40 OFFCURVE",
"408 40 CURVE SMOOTH",
"303 40 OFFCURVE",
"213 81 OFFCURVE",
"186 188 CURVE",
"165 157 LINE",
"139 42 LINE",
"203 3 OFFCURVE",
"264 -10 OFFCURVE",
"397 -10 CURVE SMOOTH",
"553 -10 OFFCURVE",
"698 30 OFFCURVE",
"698 157 CURVE SMOOTH",
"698 278 OFFCURVE",
"591 314 OFFCURVE",
"467 337 CURVE SMOOTH",
"338 361 OFFCURVE",
"306 397 OFFCURVE",
"306 428 CURVE SMOOTH",
"306 461 OFFCURVE",
"340 480 OFFCURVE",
"396 480 CURVE SMOOTH",
"471 480 OFFCURVE",
"556 439 OFFCURVE",
"574 373 CURVE",
"631 404 LINE",
"650 478 LINE",
"586 517 OFFCURVE",
"504 530 OFFCURVE",
"411 530 CURVE SMOOTH",
"229 530 OFFCURVE",
"111 477 OFFCURVE",
"111 378 CURVE SMOOTH"
);
},
{
closed = 1;
nodes = (
"643 361 LINE",
"670 523 LINE",
"601 535 LINE",
"574 373 LINE"
);
},
{
closed = 1;
nodes = (
"117 200 LINE",
"83 -3 LINE",
"152 -15 LINE",
"186 188 LINE"
);
}
);
width = 723;
},
{
associatedMasterId = "437D673D-D5CC-46D2-BD76-0DB95BEFF2D4";
layerId = "1B266592-752F-47B8-8857-030B383F88B2";
name = "May 8 18, 11:49";
paths = (
{
closed = 1;
nodes = (
"113 70 LINE",
"182 17 OFFCURVE",
"291 -10 OFFCURVE",
"436 -10 CURVE SMOOTH",
"713 -10 OFFCURVE",
"850 101 OFFCURVE",
"850 264 CURVE SMOOTH",
"850 264 OFFCURVE",
"850 264 OFFCURVE",
"850 264 CURVE SMOOTH",
"588 264 LINE",
"589 255 OFFCURVE",
"589 245 OFFCURVE",
"589 235 CURVE SMOOTH",
"589 77 OFFCURVE",
"509 40 OFFCURVE",
"446 40 CURVE SMOOTH",
"380 40 OFFCURVE",
"323 89 OFFCURVE",
"300 185 CURVE"
);
},
{
closed = 1;
nodes = (
"574 352 LINE",
"581 327 OFFCURVE",
"586 297 OFFCURVE",
"588 264 CURVE",
"850 264 LINE",
"850 351 OFFCURVE",
"816 416 OFFCURVE",
"751 460 CURVE"
);
},
{
closed = 1;
nodes = (
"300 185 LINE",
"294 208 OFFCURVE",
"291 235 OFFCURVE",
"290 264 CURVE",
"29 264 LINE",
"29 260 OFFCURVE",
"29 255 OFFCURVE",
"29 251 CURVE SMOOTH",
"29 173 OFFCURVE",
"58 113 OFFCURVE",
"113 70 CURVE"
);
},
{
closed = 1;
nodes = (
"751 460 LINE",
"681 507 OFFCURVE",
"577 530 OFFCURVE",
"443 530 CURVE SMOOTH",
"173 530 OFFCURVE",
"36 425 OFFCURVE",
"29 264 CURVE",
"290 264 LINE",
"290 269 OFFCURVE",
"290 275 OFFCURVE",
"290 280 CURVE SMOOTH",
"290 444 OFFCURVE",
"370 481 OFFCURVE",
"433 481 CURVE SMOOTH",
"493 481 OFFCURVE",
"548 439 OFFCURVE",
"574 352 CURVE"
);
}
);
visible = 1;
width = 850;
},
{
associatedMasterId = "437D673D-D5CC-46D2-BD76-0DB95BEFF2D4";
layerId = "72B7DB78-B2B7-4FCB-92CF-A039D1B56105";
name = "May 17 18, 16:33";
paths = (
{
closed = 1;
nodes = (
"94 17 OFFCURVE",
"233 -10 OFFCURVE",
"358 -10 CURVE SMOOTH",
"554 -10 OFFCURVE",
"698 30 OFFCURVE",
"698 157 CURVE SMOOTH",
"698 278 OFFCURVE",
"554 312 OFFCURVE",
"430 337 CURVE SMOOTH",
"301 361 OFFCURVE",
"269 397 OFFCURVE",
"269 428 CURVE SMOOTH",
"269 461 OFFCURVE",
"303 481 OFFCURVE",
"359 481 CURVE SMOOTH",
"434 481 OFFCURVE",
"479 439 OFFCURVE",
"495 372 CURVE",
"672 430 LINE",
"602 507 OFFCURVE",
"498 530 OFFCURVE",
"374 530 CURVE SMOOTH",
"192 530 OFFCURVE",
"74 477 OFFCURVE",
"74 378 CURVE SMOOTH",
"74 303 OFFCURVE",
"147 251 OFFCURVE",
"344 215 CURVE SMOOTH",
"451 196 OFFCURVE",
"472 166 OFFCURVE",
"472 124 CURVE SMOOTH",
"472 75 OFFCURVE",
"437 40 OFFCURVE",
"368 40 CURVE SMOOTH",
"292 40 OFFCURVE",
"235 89 OFFCURVE",
"212 165 CURVE",
"25 100 LINE"
);
},
{
closed = 0;
nodes = (
"339 211 LINE"
);
}
);
width = 723;
},
{
associatedMasterId = "437D673D-D5CC-46D2-BD76-0DB95BEFF2D4";
layerId = "08B52754-515A-4B1B-B236-E50DD89508F7";
name = "May 17 18, 18:53";
paths = (
{
closed = 1;
nodes = (
"627 476 LINE",
"567 515 OFFCURVE",
"497 530 OFFCURVE",
"404 530 CURVE SMOOTH",
"222 530 OFFCURVE",
"104 477 OFFCURVE",
"104 378 CURVE SMOOTH",
"104 293 OFFCURVE",
"177 242 OFFCURVE",
"341 211 CURVE SMOOTH",
"481 185 OFFCURVE",
"492 156 OFFCURVE",
"492 124 CURVE SMOOTH",
"492 75 OFFCURVE",
"447 40 OFFCURVE",
"378 40 CURVE",
"368 -10 LINE",
"554 -10 OFFCURVE",
"698 30 OFFCURVE",
"698 157 CURVE SMOOTH",
"698 278 OFFCURVE",
"584 314 OFFCURVE",
"460 337 CURVE SMOOTH",
"331 361 OFFCURVE",
"299 397 OFFCURVE",
"299 428 CURVE SMOOTH",
"299 461 OFFCURVE",
"333 481 OFFCURVE",
"389 481 CURVE SMOOTH",
"464 481 OFFCURVE",
"549 439 OFFCURVE",
"567 373 CURVE",
"624 404 LINE"
);
},
{
closed = 1;
nodes = (
"139 42 LINE",
"203 3 OFFCURVE",
"265 -10 OFFCURVE",
"368 -10 CURVE",
"378 40 LINE",
"303 40 OFFCURVE",
"213 81 OFFCURVE",
"186 188 CURVE",
"165 157 LINE"
);
},
{
closed = 1;
nodes = (
"186 0 LINE",
"186 188 LINE",
"116 188 LINE",
"116 0 LINE"
);
},
{
closed = 1;
nodes = (
"637 373 LINE",
"637 520 LINE",
"567 520 LINE",
"567 373 LINE"
);
}
);
width = 723;
}
);
unicode = 0073;
},
{
glyphname = u;
lastChange = "2018-04-30 18:31:27 +0000";
layers = (
{
layerId = "437D673D-D5CC-46D2-BD76-0DB95BEFF2D4";
paths = (
{
closed = 1;
nodes = (
"856 520 LINE",
"602 520 LINE",
"602 0 LINE",
"856 0 LINE"
);
},
{
closed = 1;
nodes = (
"558 124 OFFCURVE",
"507 106 OFFCURVE",
"475 106 CURVE SMOOTH",
"411 106 OFFCURVE",
"368 149 OFFCURVE",
"368 228 CURVE",
"368 520 LINE",
"120 520 LINE",
"120 180 LINE",
"120 42 OFFCURVE",
"245 -10 OFFCURVE",
"360 -10 CURVE SMOOTH",
"458 -10 OFFCURVE",
"540 28 OFFCURVE",
"602 84 CURVE",
"602 161 LINE"
);
},
{
closed = 1;
nodes = (
"931 70 LINE",
"856 70 LINE",
"856 0 LINE",
"931 0 LINE"
);
},
{
closed = 1;
nodes = (
"602 520 LINE",
"527 520 LINE",
"527 450 LINE",
"602 450 LINE"
);
},
{
closed = 1;
nodes = (
"120 520 LINE",
"45 520 LINE",
"45 450 LINE",
"120 450 LINE"
);
}
);
width = 956;
}
);
unicode = 0075;
},
